<svg width="48" height="48" viewBox="0 0 48 48" fill="none" xmlns="http://www.w3.org/2000/svg">
<path d="M0 24C0 10.7452 10.7452 0 24 0C37.2548 0 48 10.7452 48 24C48 37.2548 37.2548 48 24 48C10.7452 48 0 37.2548 0 24Z" fill="#E3F3FF"/>
<path opacity="0.12" d="M14.5739 16.7292C14.3925 16.1825 14.3017 15.9091 14.3678 15.7407C14.4251 15.5944 14.5479 15.4837 14.6992 15.4415C14.8735 15.3931 15.1362 15.5113 15.6615 15.7477L32.3788 23.2704C32.8931 23.5019 33.1503 23.6176 33.2298 23.7783C33.2988 23.918 33.2988 24.0819 33.2298 24.2216C33.1503 24.3823 32.8931 24.498 32.3788 24.7295L15.6673 32.2496C15.1404 32.4868 14.8769 32.6053 14.7025 32.5566C14.551 32.5144 14.4283 32.4033 14.3711 32.2568C14.3053 32.088 14.397 31.8141 14.5804 31.2661L16.9153 24.2914C16.9468 24.1976 16.9625 24.1507 16.9687 24.1027C16.9743 24.0601 16.9744 24.017 16.9689 23.9744C16.9627 23.9263 16.9472 23.8794 16.916 23.7855L14.5739 16.7292Z" fill="#0365D6"/>
<path d="M22.5 24H17M16.9153 24.2915L14.5804 31.2662C14.397 31.8141 14.3053 32.0881 14.3711 32.2568C14.4283 32.4033 14.551 32.5144 14.7025 32.5567C14.8769 32.6054 15.1404 32.4868 15.6673 32.2497L32.3788 24.7295C32.8931 24.4981 33.1503 24.3824 33.2298 24.2216C33.2988 24.0819 33.2988 23.9181 33.2298 23.7784C33.1503 23.6176 32.8931 23.5019 32.3788 23.2705L15.6615 15.7477C15.1362 15.5113 14.8735 15.3931 14.6992 15.4416C14.5479 15.4837 14.4251 15.5945 14.3678 15.7407C14.3017 15.9091 14.3925 16.1825 14.5739 16.7293L16.916 23.7855C16.9472 23.8794 16.9627 23.9264 16.9689 23.9744C16.9744 24.017 16.9743 24.0602 16.9687 24.1028C16.9625 24.1508 16.9468 24.1977 16.9153 24.2915Z" stroke="#0365D6" stroke-width="1.66" stroke-linecap="round" stroke-linejoin="round"/>
</svg>
