<svg width="20" height="15" viewBox="0 0 20 15" fill="none" xmlns="http://www.w3.org/2000/svg">
<path d="M2.08341 7.5H4.90172C5.47272 7.5 5.99472 7.82261 6.25008 8.33333C6.50544 8.84406 7.02744 9.16667 7.59844 9.16667H12.4017C12.9727 9.16667 13.4947 8.84406 13.7501 8.33333C14.0054 7.82261 14.5274 7.5 15.0984 7.5H17.9167M7.47222 0.833334H12.5279C13.4253 0.833334 13.874 0.833334 14.2702 0.969971C14.6205 1.0908 14.9396 1.288 15.2043 1.54729C15.5037 1.8405 15.7043 2.24183 16.1057 3.04448L17.9111 6.65542C18.0686 6.97041 18.1474 7.1279 18.2029 7.29296C18.2522 7.43954 18.2878 7.59039 18.3093 7.74355C18.3334 7.91602 18.3334 8.09211 18.3334 8.44427V10.1667C18.3334 11.5668 18.3334 12.2669 18.0609 12.8016C17.8212 13.272 17.4388 13.6545 16.9684 13.8942C16.4336 14.1667 15.7335 14.1667 14.3334 14.1667H5.66675C4.26662 14.1667 3.56655 14.1667 3.03177 13.8942C2.56137 13.6545 2.17892 13.272 1.93923 12.8016C1.66675 12.2669 1.66675 11.5668 1.66675 10.1667V8.44427C1.66675 8.09211 1.66675 7.91602 1.69089 7.74355C1.71234 7.59039 1.74795 7.43954 1.79726 7.29296C1.8528 7.1279 1.93155 6.9704 2.08904 6.65542L3.89451 3.04448C4.29583 2.24183 4.4965 1.8405 4.79587 1.54729C5.06061 1.288 5.37968 1.0908 5.72999 0.969971C6.12613 0.833334 6.57482 0.833334 7.47222 0.833334Z" stroke="#667085" stroke-width="1.67" stroke-linecap="round" stroke-linejoin="round"/>
</svg>
