<svg width="16" height="17" viewBox="0 0 16 17" fill="none" xmlns="http://www.w3.org/2000/svg">
<path d="M8.00004 11C5.35831 11 3.00904 12.2755 1.51337 14.255C1.19146 14.681 1.0305 14.894 1.03577 15.1819C1.03984 15.4043 1.17951 15.6849 1.35451 15.8222C1.58103 16 1.89493 16 2.52273 16H13.4773C14.1051 16 14.4191 16 14.6456 15.8222C14.8206 15.6849 14.9602 15.4043 14.9643 15.1819C14.9696 14.894 14.8086 14.681 14.4867 14.255C12.991 12.2755 10.6418 11 8.00004 11Z" stroke="#667085" stroke-width="1.67" stroke-linecap="round" stroke-linejoin="round"/>
<path d="M8.00004 8.5C10.0711 8.5 11.75 6.82107 11.75 4.75C11.75 2.67893 10.0711 1 8.00004 1C5.92897 1 4.25004 2.67893 4.25004 4.75C4.25004 6.82107 5.92897 8.5 8.00004 8.5Z" stroke="#667085" stroke-width="1.67" stroke-linecap="round" stroke-linejoin="round"/>
</svg>
